<?xml version="1.0" encoding="UTF-8"?>
<svg id="Layer_2" data-name="Layer 2" xmlns="http://www.w3.org/2000/svg" viewBox="0 0 566.74 549.13">
  <defs>
    <style>
      .cls-1 {
        fill: #06593d;
      }

      .cls-2, .cls-3 {
        stroke: #fff;
      }

      .cls-2, .cls-4 {
        stroke-linejoin: bevel;
        stroke-width: 77px;
      }

      .cls-5 {
        fill: #fff;
      }

      .cls-6 {
        fill: #d62a22;
      }

      .cls-3 {
        stroke-linecap: square;
        stroke-miterlimit: 10;
        stroke-width: 24px;
      }

      .cls-3, .cls-4 {
        fill: none;
      }

      .cls-4 {
        stroke: #d62a22;
      }
    </style>
  </defs>
  <polyline class="cls-4" points="57.28 493.09 279.06 16.89 509.46 488.98"/>
  <path class="cls-6" d="M403.63,193.83c.25,56.01-8.76,120.26-63.26,150.27-28.2,15.67-61,19.5-91.62,25.38-35.17,6.44-67.79,16.23-94.5,39.13-26.48,22.53-44.15,53.67-57.09,85.68,0,0-49.07-20.03-49.07-20.03,7.12-16.89,15.28-33.68,25.11-49.3,18.69-30.34,44.26-57.3,75.52-75.01,27.58-16.15,60.97-24.75,90.99-29.85,15.5-2.68,40.41-6.47,54.93-10.58,14.99-4.17,28.17-9.9,38.07-21.13,20.76-24.27,22.78-62.76,23.5-94.56,0,0,47.41,0,47.41,0h0Z"/>
  <circle class="cls-5" cx="283.37" cy="240.74" r="67.78"/>
  <circle class="cls-1" cx="283.37" cy="240.74" r="53.08"/>
  <line class="cls-2" y1="510.63" x2="566.74" y2="510.63"/>
  <path class="cls-3" d="M418.33,193.83c-5.65,245.08-182.96,114.68-294.78,333.18"/>
</svg>